<?xml version="1.0" standalone="no"?>
<!DOCTYPE svg PUBLIC "-//W3C//DTD SVG 20010904//EN"
 "http://www.w3.org/TR/2001/REC-SVG-20010904/DTD/svg10.dtd">
<svg version="1.0" xmlns="http://www.w3.org/2000/svg"
 width="394.000000pt" height="394.000000pt" viewBox="0 0 394.000000 394.000000"
 preserveAspectRatio="xMidYMid meet">
<metadata>
Created by potrace 1.14, written by Peter Selinger 2001-2017
</metadata>
<g transform="translate(0.000000,394.000000) scale(0.100000,-0.100000)"
fill="#000000" stroke="none">
<path d="M2779 3071 c-9 -3 -29 -22 -45 -41 -16 -19 -36 -43 -44 -52 -8 -10
-20 -18 -27 -18 -7 0 -12 -4 -10 -10 4 -18 -144 -180 -171 -186 -15 -4 -169
-47 -342 -96 -328 -93 -336 -95 -372 -103 -12 -2 -42 -11 -67 -19 -25 -8 -163
-47 -306 -87 -143 -39 -267 -75 -276 -80 -10 -5 -92 13 -228 51 -116 33 -215
61 -220 64 -8 5 -45 -19 -82 -54 -80 -77 -409 -378 -468 -429 -13 -12 -19 -21
-13 -21 6 0 120 41 253 90 133 50 243 89 245 87 4 -4 -36 -33 -163 -122 -212
-147 -423 -298 -423 -302 0 -4 49 2 105 12 17 3 109 20 205 38 l175 33 80 -29
c294 -106 302 -110 273 -150 -9 -11 -33 -19 -78 -22 -36 -4 -82 -8 -103 -10
-21 -2 -77 -7 -123 -11 -47 -4 -87 -10 -89 -14 -3 -4 30 -23 73 -43 93 -42
235 -110 241 -114 2 -1 -11 -43 -29 -93 -17 -50 -30 -93 -28 -95 3 -3 133 -66
343 -165 44 -21 139 -66 210 -100 278 -133 270 -130 307 -119 56 17 799 226
828 233 8 3 74 21 145 41 72 21 135 38 140 39 6 1 35 9 65 18 30 9 80 23 111
32 44 12 60 23 80 53 25 38 327 472 378 544 14 20 33 47 41 59 8 13 24 35 36
49 11 14 29 41 39 58 18 30 18 34 3 45 -9 7 -46 36 -82 63 -36 28 -64 55 -62
61 2 6 47 76 100 157 53 80 96 148 96 151 0 3 -80 -34 -177 -83 -98 -49 -179
-88 -181 -86 -2 2 52 81 120 176 l124 174 64 18 c36 10 76 20 89 23 14 3 58
14 98 25 41 11 84 22 96 25 55 10 190 52 175 54 -10 2 -21 3 -25 4 -5 1 -37 6
-73 10 -36 5 -72 10 -81 11 -9 2 -40 6 -70 10 -30 3 -65 8 -79 10 -66 9 -109
15 -150 20 -25 4 -56 8 -70 10 -14 2 -47 7 -75 10 -27 3 -59 7 -70 9 -11 3
-29 5 -40 6 -11 0 23 17 75 36 52 20 109 41 125 48 17 8 51 21 78 31 26 10 46
19 45 20 -2 2 -43 6 -93 9 -49 4 -119 9 -155 12 -36 3 -94 7 -130 9 -89 4
-259 16 -295 19 -16 2 -37 1 -46 -3z m282 -273 c-33 -40 -71 -85 -83 -99 -13
-15 -50 -61 -83 -102 -58 -74 -77 -88 -90 -67 -9 14 3 31 100 150 17 20 44 53
60 74 58 74 74 90 102 102 55 24 54 13 -6 -58z m-381 -705 l69 -68 -21 -85
c-11 -47 -26 -90 -32 -96 -6 -6 -46 -21 -89 -33 -60 -18 -81 -20 -92 -11 -8 6
-39 36 -70 65 -52 49 -56 56 -51 87 9 51 33 148 38 154 5 4 157 52 171 53 5 1
40 -29 77 -66z m-1940 27 c18 -12 2 -12 -25 0 -13 6 -15 9 -5 9 8 0 22 -4 30
-9z m158 -51 c50 -17 92 -34 92 -39 0 -5 -30 2 -67 17 -38 14 -80 29 -95 33
-14 5 -35 13 -45 20 -17 11 -17 11 2 5 11 -4 62 -20 113 -36z m775 -323 c19
-18 20 -40 2 -116 -3 -14 -9 -41 -13 -60 -8 -35 -19 -41 -112 -65 -8 -2 -29
-8 -46 -13 -30 -9 -35 -7 -99 58 l-68 68 18 85 c10 47 21 89 24 94 3 5 44 21
91 35 l85 25 49 -46 c27 -25 58 -54 69 -65z"/>
</g>
</svg>
