<svg width="23" height="19" viewBox="0 0 23 19" fill="none" xmlns="http://www.w3.org/2000/svg">
<path d="M16.8115 5.15183C16.6023 5.54371 16.0488 6.50831 15.6532 6.92298L14.5841 6.91721C13.827 5.57629 12.4606 4.65475 10.7837 4.35362C10.571 3.59514 9.8638 2.93219 9.21001 2.92866C8.54817 2.92509 8.10634 3.4202 8.01092 4.24204L4.06041 4.22073L3.98694 4.25975C3.95557 4.27643 3.21042 4.67738 2.46117 5.50414C1.46464 6.60362 0.933881 7.94155 0.926156 9.37324C0.91843 10.8049 1.43472 12.1485 2.41933 13.2587C3.15966 14.0935 3.9004 14.5024 3.93159 14.5195L4.00462 14.5593L7.95509 14.5806C8.04163 15.4034 8.47814 15.9033 9.13994 15.9068C9.79373 15.9104 10.508 15.2551 10.729 14.4989C12.4097 14.2156 13.7858 13.3087 14.5568 11.9765L15.6258 11.9823C16.0172 12.4015 16.5607 13.3729 16.7653 13.7666C18.1335 18.0627 20.6733 18.167 20.781 18.1694L22.2163 18.1771L22.31 0.79959L20.8784 0.791866C20.7701 0.791897 18.2134 0.841499 16.8115 5.15183ZM8.67417 4.24562C8.75979 3.658 9.06426 3.5878 9.20645 3.58857C9.47595 3.59002 9.84129 3.88355 10.0418 4.2647C9.91143 4.25674 8.67417 4.24562 8.67417 4.24562ZM9.14354 15.2469C9.00135 15.2462 8.69766 15.1727 8.61838 14.5842C8.61838 14.5842 9.85574 14.5864 9.98613 14.5798C9.78153 14.9588 9.41305 15.2484 9.14354 15.2469ZM4.18033 13.9003C3.99191 13.7848 3.43985 13.4196 2.8975 12.8032C2.02038 11.8063 1.57917 10.6535 1.58606 9.3768C1.59295 8.10014 2.04658 6.95216 2.9344 5.96477C3.48359 5.35392 4.03986 4.99471 4.22904 4.88156L7.31212 4.8982C7.10624 6.85201 5.29218 9.46428 5.17101 9.63675C5.0959 9.72711 4.39425 10.5629 3.68431 11.1071L4.08584 11.6309C4.61094 11.2283 5.11716 10.6959 5.4158 10.3621C6.304 11.6294 6.66278 13.2108 6.78573 13.9143L4.18033 13.9003V13.9003ZM10.4116 13.8799C10.1566 13.9144 9.88039 13.931 9.5906 13.9295L7.61088 13.9188L7.45686 13.918C7.34292 13.1979 6.95319 11.3103 5.84223 9.82555C6.31474 9.12545 7.8016 6.79148 7.9748 4.90177L9.63926 4.91075C9.92905 4.91232 10.2051 4.93198 10.4605 4.96926C12.1023 5.20504 13.4263 6.08962 14.0935 7.39684C14.4099 8.01285 14.5683 8.70254 14.5642 9.44682C14.5602 10.1911 14.3944 10.879 14.0709 11.4924C13.3901 12.7916 12.0567 13.6617 10.4116 13.8799ZM14.8954 7.57882L15.6571 7.58293C15.8805 7.79901 16.4865 8.46106 16.5397 9.32576L16.5382 9.58915C16.4753 10.4481 15.8614 11.1078 15.6362 11.3224L14.8752 11.3183C15.1031 10.7396 15.2206 10.1136 15.2241 9.45039C15.2277 8.787 15.1169 8.15969 14.8954 7.57882ZM21.5599 17.5137L20.7961 17.5096C20.7574 17.5072 20.2272 17.4667 19.5664 16.9934C18.4028 16.1599 17.7384 14.6556 17.3859 13.5404C17.3859 13.5404 16.738 12.2848 16.2258 11.6667C16.4992 11.3795 16.9177 10.8521 17.106 10.1631L18.8271 11.9029L19.2963 11.4388L17.3405 9.46185L19.3175 7.50611L18.8534 7.03695L17.1136 8.75811C16.9328 8.06707 16.52 7.53528 16.2496 7.24508C16.7685 6.63252 17.4304 5.38249 17.4304 5.38249C17.7912 4.2645 18.4677 2.76066 19.6415 1.94539C20.3151 1.47748 20.8522 1.45284 20.8802 1.45193L21.6466 1.45607L21.5599 17.5137Z" fill="#FD7529"/>
<path d="M18.746 9.02711L18.7413 9.90698L19.4012 9.91054L19.4059 9.03067L18.746 9.02711Z" fill="#FD7529"/>
<path d="M20.066 9.03419L20.0612 9.91406L20.7211 9.91762L20.7259 9.03775L20.066 9.03419Z" fill="#FD7529"/>
<path d="M11.2647 9.42693L11.2695 8.54705L10.6095 8.54349L10.6066 9.09341L9.17678 9.0857L9.17322 9.74561L10.933 9.7551C11.1152 9.75608 11.2637 9.60919 11.2647 9.42693Z" fill="#FD7529"/>
</svg>
