<svg width="19" height="22" viewBox="0 0 19 22" fill="none" xmlns="http://www.w3.org/2000/svg">
<path d="M16.6909 15.2194C16.6747 15.107 16.6897 14.9917 16.7341 14.889C17.2438 13.7093 17.5153 12.4155 17.5225 11.0775C17.5491 6.14217 13.9699 2.12186 9.52813 2.0979C5.08633 2.07393 1.46395 6.05538 1.43732 10.9907C1.41069 15.926 4.98989 19.9463 9.43169 19.9703C11.1477 19.9796 12.7845 19.3905 14.1507 18.3039C14.298 18.1868 14.4905 18.1666 14.6546 18.2511L17.3277 19.6266L16.6909 15.2194ZM18.4702 20.4858C18.5341 20.9276 18.1276 21.2698 17.7623 21.0818L14.4919 19.399C13.0055 20.5018 11.2543 21.0972 9.42566 21.0873C4.42864 21.0604 0.402039 16.5375 0.431998 10.9853C0.461957 5.43304 4.53713 0.953907 9.53415 0.98087C14.5312 1.00783 18.5578 5.53068 18.5278 11.0829C18.52 12.5266 18.2381 13.9267 17.7081 15.211L18.4702 20.4858Z" fill="#FD7529"/>
</svg>
